<svg width="13" height="14" viewBox="0 0 13 14" fill="none" xmlns="http://www.w3.org/2000/svg">
<path d="M7.73067 1.89053C4.26027 1.53269 2.33432 3.27711 1.69209 4.00384C1.23631 4.45491 0.878596 5.00917 0.662229 5.64794C0.358133 6.55134 0.388102 7.48148 0.685774 8.31421C2.35864 6.22356 5.1603 5.83273 5.93954 5.76309C5.03006 6.20427 1.02976 8.35368 0.134084 12.4115C0.124628 12.4448 0.112619 12.4772 0.104485 12.5109C0.0826419 12.5951 0.0621222 12.6793 0.0436833 12.7664C0.0329979 12.8157 0.0213668 12.8646 0.016733 12.9151C-0.00425959 13.0104 -0.0350857 13.2561 0.133704 13.3202L0.705608 13.4912C0.705608 13.4912 1.00765 13.5717 1.00121 13.2467C1.00764 12.1621 1.30409 10.9469 2.0585 10.2143C2.47399 10.5426 2.95984 10.803 3.50386 10.9714C4.88199 11.3978 6.32016 11.1398 7.41725 10.3913C11.3113 8.07179 13 0.5 13 0.5C11.549 2.33273 7.73098 1.89073 7.73098 1.89073L7.73067 1.89053ZM6.13277 5.75587L6.1323 5.74934C6.14128 5.74934 6.14772 5.74771 6.14772 5.74771C6.14308 5.75097 6.1375 5.75378 6.13277 5.75587Z" fill="#7CBD48"/>
</svg>
