<svg width="14" height="11" viewBox="0 0 14 11" fill="none" xmlns="http://www.w3.org/2000/svg">
<path fill-rule="evenodd" clip-rule="evenodd" d="M4.45893 3.3714C4.79685 2.73288 5.37608 0.497884 6.87247 0.224229C8.32052 -0.0494266 10.1065 -0.186309 11.3132 0.497884C12.5199 1.1364 14.2575 3.41696 13.968 4.73941C13.6784 6.10766 13.5335 7.47596 11.6993 8.38832C8.22391 10.1214 7.59646 9.3005 4.07255 9.16372C2.96231 9.11806 0.597162 9.39182 0.162881 8.11467C-0.850803 5.42371 3.30044 5.65172 4.4589 3.3714H4.45893ZM13.968 6.38161C13.6784 7.70432 13.4854 9.02701 11.6994 9.89356C8.22397 11.6723 7.59651 10.8057 4.07261 10.669C2.96237 10.6233 0.597219 10.8971 0.162939 9.66558C0.0180763 9.25504 -0.0301365 8.93585 0.0180763 8.6622C0.838703 9.71125 2.81776 9.4376 4.02448 9.48316C8.0791 9.6656 8.36872 10.4865 11.8923 8.70776C12.9542 8.16045 13.5818 7.43072 13.9679 6.38166L13.968 6.38161ZM7.8861 1.18216C7.35509 1.77511 8.1275 3.37148 8.46533 3.96427C7.25856 5.65185 4.26604 5.65185 2.52806 8.02354L3.25216 7.70424C4.50715 6.60964 7.49995 5.42371 9.18943 4.60263C9.18943 4.60263 9.52735 4.46575 10.0583 4.69385C10.6858 4.92195 12.52 5.97089 12.858 4.78507C11.3616 4.9675 7.30704 3.09749 8.12767 1.68346C8.32074 1.31859 8.56215 0.95373 7.88627 1.18171L7.8861 1.18216Z" fill="#FF6F6F"/>
</svg>
